<svg viewBox="0 -5 100 100">
  <path d="m83.234 28.973c0.55078-0.13281 1.0195-0.48438 1.3086-0.97266l6.8398-11.684c0.47656-0.82031 0.34375-1.8555-0.32422-2.5234l-4.8477-4.8477c-0.66797-0.66797-1.707-0.80078-2.5234-0.32422l-11.684 6.8398c-0.48828 0.28906-0.83984 0.75781-0.97266 1.3086l-1.4102 5.8242-16.832 16.832-11.422-11.422c0.97266-5.3516-0.73438-10.922-4.5977-14.785-4.5156-4.5156-11.336-6.043-17.363-3.8828-0.67188 0.23828-1.1719 0.80859-1.332 1.5078-0.15625 0.69531 0.054687 1.4258 0.55859 1.9297l6.8516 6.8555c0.54297 0.54297 0.54297 1.3867 0 1.9297l-3.957 3.957c-0.54297 0.54297-1.3906 0.54297-1.9297 0l-6.8555-6.8555c-0.50781-0.50391-1.2383-0.72266-1.9297-0.55859-0.69922 0.15625-1.2656 0.66016-1.5078 1.332-2.1562 6.0312-0.63281 12.848 3.8828 17.363 3.9453 3.9453 9.418 5.6133 14.828 4.6016l8.0742 8.0742-0.71094 2.4062-5.5664 1.6406c-0.33203 0.097657-0.63672 0.27734-0.88281 0.52344l-16.652 16.652c-2.2734 2.2734-3.5234 5.2969-3.5234 8.5117 0 3.2148 1.2539 6.2383 3.5234 8.5117 2.2734 2.2734 5.2969 3.5234 8.5117 3.5234 3.2148 0 6.2383-1.2539 8.5117-3.5234l16.652-16.652c0.24609-0.24609 0.42578-0.55078 0.52344-0.88281l1.6406-5.5664 2.4062-0.71094 8.1016 8.1016c-0.97656 5.3555 0.73438 10.918 4.5898 14.762 3.1562 3.168 7.4414 4.8711 11.805 4.8711 1.8711 0 3.7656-0.31641 5.582-0.96094 0.67188-0.23828 1.1758-0.80859 1.332-1.5078 0.16016-0.69922-0.054688-1.4258-0.55859-1.9297l-6.875-6.875c-0.54297-0.54297-0.54297-1.3867 0-1.9297l3.957-3.957c0.52344-0.52344 1.4023-0.52344 1.9297 0l6.875 6.875c0.50391 0.50391 1.2344 0.72266 1.9336 0.55859 0.69922-0.16016 1.2656-0.66406 1.5039-1.3398 2.1602-6.1211 0.66016-12.781-3.9102-17.371-3.8711-3.8711-9.4648-5.5742-14.828-4.5781l-11.402-11.402 16.832-16.832 5.8242-1.4102zm-55.074 8.1133c-4.3477 1.1445-8.8438-0.074219-12.02-3.2461-2.5273-2.5273-3.8047-6.0234-3.6133-9.5117l4.125 4.125c2.1562 2.1562 5.6641 2.1562 7.8203 0l3.957-3.957c2.1523-2.1523 2.1523-5.6641 0-7.8203l-4.125-4.125c3.5156-0.19531 6.9844 1.0859 9.5117 3.6133 3.1094 3.1133 4.3555 7.7031 3.2461 11.984-0.18359 0.71484 0.019531 1.4766 0.54297 1.9961l12.23 12.23-6.1953 6.1953-3.1445-3.1445c-0.51953-0.51953-1.2695-0.73438-1.9883-0.54688-0.27344 0.070313-0.51562 0.20703-0.73437 0.37109l-7.6172-7.6172c-0.52344-0.52344-1.2891-0.72656-2.0039-0.54297zm17.703 23.848c-0.67578 0.19922-1.207 0.73047-1.4102 1.4102l-1.8086 6.1445-16.277 16.277c-2.9727 2.9727-8.1562 2.9766-11.133 0-1.4883-1.4883-2.3047-3.4648-2.3047-5.5664 0-2.1016 0.82031-4.0781 2.3047-5.5664l16.277-16.277 6.1445-1.8086c0.67578-0.19922 1.207-0.73047 1.4102-1.4102l0.97266-3.2891 9.1172 9.1172-3.2891 0.97266zm23.977 1.4375c0.52344 0.52344 1.2891 0.72656 2.0039 0.54297 4.2969-1.1328 8.8984 0.10938 12.016 3.2227 2.5664 2.5781 3.8398 6.0352 3.6367 9.5391l-4.1445-4.1445c-2.0938-2.0938-5.7266-2.1016-7.8242 0l-3.957 3.957c-2.1523 2.1523-2.1523 5.6641 0 7.8203l4.1445 4.1406c-3.4922 0.21484-7.0039-1.0898-9.5352-3.6328-3.1094-3.0938-4.3516-7.6758-3.2422-11.957 0.18359-0.71484-0.019531-1.4766-0.54297-1.9961l-7.6367-7.6367c0.16797-0.21875 0.30469-0.46094 0.37109-0.73437 0.17969-0.71094-0.023437-1.4688-0.54688-1.9883l-3.1445-3.1445 6.1953-6.1953zm5.0352-35.348-25.676 25.676-1.8984-1.8984 25.676-25.676c0.26953-0.26953 0.46094-0.60938 0.55078-0.98438l1.3398-5.5352 9.5352-5.582 2.5703 2.5703-5.582 9.5352-5.5352 1.3398c-0.37109 0.089844-0.71094 0.28125-0.98438 0.55078z"/>
  <path d="m34.141 62.914-14.941 14.941c-0.81641 0.81641-0.81641 2.1328 0 2.9453 0.40625 0.40625 0.94141 0.60938 1.4727 0.60938 0.53516 0 1.0664-0.20312 1.4727-0.60938l14.941-14.941c0.81641-0.81641 0.81641-2.1328 0-2.9453-0.81641-0.81641-2.1328-0.81641-2.9453 0z"/>
</svg>
